<svg width="192" height="42" viewBox="0 0 192 42" fill="none" xmlns="http://www.w3.org/2000/svg">
<path d="M33.3997 29.6935H13.9253C11.8295 29.6935 9.92355 29.307 8.2075 28.534C6.49145 27.7609 5.02156 26.7049 3.79782 25.3658C2.58814 24.0268 1.65275 22.4531 0.991652 20.6447C0.330551 18.8363 0 16.9036 0 14.8468C0 12.8037 0.330551 10.8849 0.991652 9.09028C1.65275 7.28189 2.58814 5.70817 3.79782 4.36913C5.02156 3.01629 6.49145 1.95334 8.2075 1.18029C9.92355 0.393429 11.8295 0 13.9253 0H33.3997V4.24489H13.9253C12.4343 4.24489 11.091 4.52788 9.89542 5.09387C8.71388 5.64605 7.70816 6.4053 6.87827 7.37162C6.06244 8.32413 5.42947 9.4423 4.97936 10.7261C4.54331 12.0099 4.32529 13.3835 4.32529 14.8468C4.32529 16.31 4.54331 17.6905 4.97936 18.9881C5.42947 20.2719 6.06244 21.397 6.87827 22.3633C7.70816 23.3158 8.71388 24.0682 9.89542 24.6204C11.091 25.1726 12.4343 25.4486 13.9253 25.4486H33.3997V29.6935Z" fill="white"/>
<path d="M22.6493 12.3065L42.1237 12.3065C44.2195 12.3065 46.1255 12.693 47.8415 13.466C49.5576 14.2391 51.0275 15.2951 52.2512 16.6342C53.4609 17.9732 54.3963 19.5469 55.0574 21.3553C55.7185 23.1637 56.049 25.0964 56.049 27.1532C56.049 29.1963 55.7185 31.1151 55.0574 32.9097C54.3963 34.7181 53.4609 36.2918 52.2512 37.6309C51.0275 38.9837 49.5576 40.0467 47.8415 40.8197C46.1255 41.6066 44.2195 42 42.1237 42L22.6493 42V37.7551L42.1237 37.7551C43.6147 37.7551 44.958 37.4721 46.1536 36.9061C47.3351 36.3539 48.3409 35.5947 49.1707 34.6284C49.9866 33.6759 50.6195 32.5577 51.0697 31.2739C51.5057 29.9901 51.7237 28.6165 51.7237 27.1532C51.7237 25.69 51.5057 24.3095 51.0697 23.0119C50.6195 21.7281 49.9866 20.603 49.1708 19.6367C48.3409 18.6842 47.3351 17.9318 46.1536 17.3796C44.958 16.8274 43.6147 16.5514 42.1237 16.5514L22.6493 16.5513V12.3065Z" fill="white"/>
<path d="M82.1649 22.0602H74.4954C73.6585 22.0602 72.8989 21.9083 72.2167 21.6046C71.5345 21.3009 70.9508 20.8868 70.4655 20.3622C69.9802 19.8308 69.604 19.2096 69.3367 18.4986C69.0765 17.7808 68.9464 17.0112 68.9464 16.1898C68.9464 15.3753 69.0765 14.6161 69.3367 13.9121C69.604 13.2011 69.9802 12.5834 70.4655 12.0588C70.9508 11.5342 71.5345 11.1201 72.2167 10.8164C72.8989 10.5127 73.6585 10.3609 74.4954 10.3609H82.1649V12.4936H74.4954C73.975 12.4936 73.5038 12.5903 73.0818 12.7835C72.6669 12.9768 72.3152 13.2391 72.0268 13.5704C71.7385 13.9017 71.517 14.2917 71.3622 14.7403C71.2075 15.189 71.1301 15.6721 71.1301 16.1898C71.1301 16.7144 71.2075 17.2044 71.3622 17.66C71.517 18.1086 71.7385 18.5021 72.0268 18.8403C72.3152 19.1716 72.6669 19.4339 73.0818 19.6271C73.5038 19.8204 73.975 19.917 74.4954 19.917H82.1649V22.0602Z" fill="white"/>
<path d="M98.1685 22.0602H96.0058V18.861H87.6823V16.6971H96.0058V12.4936H90.383C89.8555 12.4936 89.3597 12.5937 88.8955 12.7939C88.4313 12.9872 88.0269 13.2529 87.6823 13.5911C87.3377 13.9293 87.0634 14.3262 86.8594 14.7818C86.6625 15.2304 86.564 15.7136 86.564 16.2312V22.0602H84.3803V16.2312C84.3803 15.4168 84.5385 14.6541 84.855 13.9431C85.1715 13.2322 85.6005 12.611 86.1421 12.0795C86.6836 11.548 87.3201 11.1305 88.0515 10.8268C88.783 10.5162 89.5601 10.3609 90.383 10.3609H98.1685V22.0602Z" fill="white"/>
<path d="M115.269 22.0602H112.326L108.95 18.9024H104.572V16.8007H110.554C110.856 16.8007 111.141 16.742 111.408 16.6247C111.675 16.5073 111.907 16.352 112.104 16.1588C112.301 15.9586 112.456 15.7274 112.569 15.4651C112.681 15.2028 112.737 14.9267 112.737 14.6368C112.737 14.34 112.681 14.0639 112.569 13.8085C112.456 13.5462 112.301 13.3185 112.104 13.1252C111.907 12.9319 111.675 12.7801 111.408 12.6697C111.141 12.5523 110.856 12.4936 110.554 12.4936H103.443V22.0602H101.281V10.4023H110.554C111.151 10.4023 111.714 10.5162 112.242 10.7439C112.769 10.9648 113.226 11.2685 113.613 11.655C114.007 12.0346 114.316 12.4833 114.541 13.001C114.766 13.5117 114.879 14.057 114.879 14.6368C114.879 15.1131 114.802 15.5721 114.647 16.0138C114.492 16.4486 114.274 16.849 113.993 17.2148C113.718 17.5737 113.391 17.8843 113.012 18.1466C112.632 18.4089 112.217 18.6022 111.767 18.7264L115.269 22.0602Z" fill="white"/>
<path d="M130.471 18.6229C130.471 19.0991 130.38 19.5478 130.197 19.9688C130.014 20.3829 129.764 20.7453 129.448 21.0559C129.138 21.3665 128.769 21.6115 128.34 21.791C127.918 21.9705 127.464 22.0602 126.979 22.0602H116.883V19.9377H126.979C127.169 19.9377 127.345 19.9067 127.507 19.8446C127.675 19.7755 127.82 19.6824 127.939 19.565C128.066 19.4408 128.164 19.2993 128.235 19.1405C128.305 18.9818 128.34 18.8092 128.34 18.6229C128.34 18.4365 128.305 18.2639 128.235 18.1052C128.164 17.9395 128.066 17.798 127.939 17.6807C127.82 17.5565 127.675 17.4598 127.507 17.3908C127.345 17.3218 127.169 17.2873 126.979 17.2873H120.365C119.886 17.2873 119.436 17.1975 119.014 17.0181C118.592 16.8386 118.223 16.5936 117.907 16.283C117.59 15.9655 117.34 15.5962 117.158 15.1752C116.975 14.7541 116.883 14.3055 116.883 13.8292C116.883 13.3668 116.975 12.9285 117.158 12.5144C117.34 12.0933 117.59 11.7275 117.907 11.4169C118.223 11.1063 118.592 10.8613 119.014 10.6818C119.436 10.4954 119.886 10.4023 120.365 10.4023H129.68V12.4936H120.365C120.182 12.4936 120.006 12.5316 119.837 12.6075C119.675 12.6766 119.535 12.7732 119.415 12.8974C119.296 13.0148 119.201 13.1563 119.13 13.3219C119.06 13.4807 119.025 13.6498 119.025 13.8292C119.025 14.0156 119.06 14.1916 119.13 14.3573C119.201 14.516 119.296 14.6575 119.415 14.7818C119.535 14.8991 119.675 14.9923 119.837 15.0613C120.006 15.1303 120.182 15.1648 120.365 15.1648H126.979C127.464 15.1648 127.918 15.258 128.34 15.4444C128.769 15.6238 129.138 15.8723 129.448 16.1898C129.764 16.5004 130.014 16.8662 130.197 17.2873C130.38 17.7083 130.471 18.1535 130.471 18.6229Z" fill="white"/>
<path d="M145.23 22.0602H137.56C136.723 22.0602 135.964 21.9083 135.282 21.6046C134.599 21.3009 134.016 20.8868 133.53 20.3622C133.045 19.8308 132.669 19.2096 132.402 18.4986C132.141 17.7808 132.011 17.0112 132.011 16.1898C132.011 15.3753 132.141 14.6161 132.402 13.9121C132.669 13.2011 133.045 12.5834 133.53 12.0588C134.016 11.5342 134.599 11.1201 135.282 10.8164C135.964 10.5127 136.723 10.3609 137.56 10.3609H145.23V12.4936H137.56C137.04 12.4936 136.569 12.5903 136.147 12.7835C135.732 12.9768 135.38 13.2391 135.092 13.5704C134.803 13.9017 134.582 14.2917 134.427 14.7403C134.272 15.189 134.195 15.6721 134.195 16.1898C134.195 16.7144 134.272 17.2044 134.427 17.66C134.582 18.1086 134.803 18.5021 135.092 18.8403C135.38 19.1716 135.732 19.4339 136.147 19.6271C136.569 19.8204 137.04 19.917 137.56 19.917H145.23V22.0602Z" fill="white"/>
<path d="M161.233 22.0602H159.071V18.861H150.747V16.6971H159.071V12.4936H153.448C152.92 12.4936 152.425 12.5937 151.96 12.7939C151.496 12.9872 151.092 13.2529 150.747 13.5911C150.403 13.9293 150.128 14.3262 149.924 14.7818C149.727 15.2304 149.629 15.7136 149.629 16.2312V22.0602H147.445V16.2312C147.445 15.4168 147.603 14.6541 147.92 13.9431C148.236 13.2322 148.665 12.611 149.207 12.0795C149.748 11.548 150.385 11.1305 151.116 10.8268C151.848 10.5162 152.625 10.3609 153.448 10.3609H161.233V22.0602Z" fill="white"/>
<path d="M170.918 22.0602H168.755V12.4936H163.037V10.4023H176.625V12.4936H170.918V22.0602Z" fill="white"/>
<path d="M191.447 18.6229C191.447 19.0991 191.356 19.5478 191.173 19.9688C190.99 20.3829 190.74 20.7453 190.424 21.0559C190.114 21.3665 189.745 21.6115 189.316 21.791C188.894 21.9705 188.44 22.0602 187.955 22.0602H177.859V19.9377H187.955C188.145 19.9377 188.321 19.9067 188.483 19.8446C188.651 19.7755 188.796 19.6824 188.915 19.565C189.042 19.4408 189.14 19.2993 189.211 19.1405C189.281 18.9818 189.316 18.8092 189.316 18.6229C189.316 18.4365 189.281 18.2639 189.211 18.1052C189.14 17.9395 189.042 17.798 188.915 17.6807C188.796 17.5565 188.651 17.4598 188.483 17.3908C188.321 17.3218 188.145 17.2873 187.955 17.2873H181.341C180.862 17.2873 180.412 17.1975 179.99 17.0181C179.568 16.8386 179.199 16.5936 178.883 16.283C178.566 15.9655 178.316 15.5962 178.134 15.1752C177.951 14.7541 177.859 14.3055 177.859 13.8292C177.859 13.3668 177.951 12.9285 178.134 12.5144C178.316 12.0933 178.566 11.7275 178.883 11.4169C179.199 11.1063 179.568 10.8613 179.99 10.6818C180.412 10.4954 180.862 10.4023 181.341 10.4023H190.656V12.4936H181.341C181.158 12.4936 180.982 12.5316 180.813 12.6075C180.651 12.6766 180.511 12.7732 180.391 12.8974C180.272 13.0148 180.177 13.1563 180.106 13.3219C180.036 13.4807 180.001 13.6498 180.001 13.8292C180.001 14.0156 180.036 14.1916 180.106 14.3573C180.177 14.516 180.272 14.6575 180.391 14.7818C180.511 14.8991 180.651 14.9923 180.813 15.0613C180.982 15.1303 181.158 15.1648 181.341 15.1648H187.955C188.44 15.1648 188.894 15.258 189.316 15.4444C189.745 15.6238 190.114 15.8723 190.424 16.1898C190.74 16.5004 190.99 16.8662 191.173 17.2873C191.356 17.7083 191.447 18.1535 191.447 18.6229Z" fill="white"/>
<path d="M98.2419 25.8769V28.8454H97.5462V26.4366H96.1808V28.8454H95.4851V25.8769H98.2419Z" fill="white"/>
<path d="M100.31 26.5299C100.526 26.5299 100.722 26.5794 100.897 26.6784C101.076 26.7745 101.216 26.9116 101.316 27.0897C101.417 27.265 101.468 27.47 101.468 27.7046C101.468 27.9393 101.417 28.1457 101.316 28.3238C101.216 28.4991 101.076 28.6362 100.897 28.7351C100.722 28.8313 100.526 28.8793 100.31 28.8793C100.013 28.8793 99.7796 28.7874 99.6096 28.6037V29.6681H98.9355V26.5639H99.5794V26.8268C99.7465 26.6289 99.9899 26.5299 100.31 26.5299ZM100.193 28.3365C100.366 28.3365 100.507 28.28 100.616 28.1669C100.729 28.051 100.785 27.8969 100.785 27.7046C100.785 27.5124 100.729 27.3597 100.616 27.2466C100.507 27.1307 100.366 27.0728 100.193 27.0728C100.02 27.0728 99.8775 27.1307 99.7652 27.2466C99.6557 27.3597 99.601 27.5124 99.601 27.7046C99.601 27.8969 99.6557 28.051 99.7652 28.1669C99.8775 28.28 100.02 28.3365 100.193 28.3365Z" fill="white"/>
<path d="M103.029 28.8793C102.784 28.8793 102.564 28.8298 102.368 28.7309C102.175 28.6291 102.024 28.4892 101.914 28.3111C101.805 28.1329 101.75 27.9308 101.75 27.7046C101.75 27.4785 101.805 27.2763 101.914 27.0982C102.024 26.9201 102.175 26.7816 102.368 26.6826C102.564 26.5808 102.784 26.5299 103.029 26.5299C103.274 26.5299 103.493 26.5808 103.686 26.6826C103.879 26.7816 104.03 26.9201 104.14 27.0982C104.249 27.2763 104.304 27.4785 104.304 27.7046C104.304 27.9308 104.249 28.1329 104.14 28.3111C104.03 28.4892 103.879 28.6291 103.686 28.7309C103.493 28.8298 103.274 28.8793 103.029 28.8793ZM103.029 28.3365C103.202 28.3365 103.343 28.28 103.453 28.1669C103.565 28.051 103.621 27.8969 103.621 27.7046C103.621 27.5124 103.565 27.3597 103.453 27.2466C103.343 27.1307 103.202 27.0728 103.029 27.0728C102.856 27.0728 102.714 27.1307 102.601 27.2466C102.489 27.3597 102.433 27.5124 102.433 27.7046C102.433 27.8969 102.489 28.051 102.601 28.1669C102.714 28.28 102.856 28.3365 103.029 28.3365Z" fill="white"/>
<path d="M106.63 27.1067H105.437V28.8454H104.767V26.5639H106.63V27.1067Z" fill="white"/>
<path d="M108.357 26.5299C108.573 26.5299 108.769 26.5794 108.944 26.6784C109.123 26.7745 109.263 26.9116 109.364 27.0897C109.464 27.265 109.515 27.47 109.515 27.7046C109.515 27.9393 109.464 28.1457 109.364 28.3238C109.263 28.4991 109.123 28.6362 108.944 28.7351C108.769 28.8313 108.573 28.8793 108.357 28.8793C108.06 28.8793 107.827 28.7874 107.657 28.6037V29.6681H106.983V26.5639H107.627V26.8268C107.794 26.6289 108.037 26.5299 108.357 26.5299ZM108.24 28.3365C108.413 28.3365 108.554 28.28 108.664 28.1669C108.776 28.051 108.832 27.8969 108.832 27.7046C108.832 27.5124 108.776 27.3597 108.664 27.2466C108.554 27.1307 108.413 27.0728 108.24 27.0728C108.067 27.0728 107.925 27.1307 107.812 27.2466C107.703 27.3597 107.648 27.5124 107.648 27.7046C107.648 27.8969 107.703 28.051 107.812 28.1669C107.925 28.28 108.067 28.3365 108.24 28.3365Z" fill="white"/>
<path d="M110.852 26.5299C111.213 26.5299 111.489 26.6148 111.682 26.7844C111.875 26.9512 111.972 27.2042 111.972 27.5435V28.8454H111.341V28.5613C111.214 28.7733 110.978 28.8793 110.632 28.8793C110.453 28.8793 110.298 28.8496 110.165 28.7903C110.036 28.7309 109.936 28.6489 109.867 28.5443C109.798 28.4397 109.764 28.3209 109.764 28.1881C109.764 27.976 109.844 27.8092 110.005 27.6877C110.17 27.5661 110.422 27.5053 110.762 27.5053H111.297C111.297 27.3611 111.253 27.2509 111.164 27.1745C111.074 27.0954 110.94 27.0558 110.762 27.0558C110.638 27.0558 110.515 27.0756 110.394 27.1152C110.276 27.1519 110.175 27.2028 110.092 27.2678L109.85 26.8056C109.977 26.7179 110.128 26.6501 110.304 26.602C110.482 26.554 110.665 26.5299 110.852 26.5299ZM110.801 28.434C110.916 28.434 111.018 28.4086 111.107 28.3577C111.197 28.304 111.26 28.2262 111.297 28.1245V27.8912H110.835C110.559 27.8912 110.42 27.9803 110.42 28.1584C110.42 28.2432 110.453 28.3111 110.52 28.3619C110.589 28.41 110.682 28.434 110.801 28.434Z" fill="white"/>
<path d="M114.826 28.8454V27.4799L114.13 28.6249H113.845L113.166 27.4756V28.8454H112.557V26.5639H113.261L114.005 27.8827L114.795 26.5639H115.426L115.435 28.8454H114.826Z" fill="white"/>
<path d="M118.349 28.8454V27.4799L117.654 28.6249H117.368L116.69 27.4756V28.8454H116.081V26.5639H116.785L117.528 27.8827L118.319 26.5639H118.95L118.959 28.8454H118.349Z" fill="white"/>
<path d="M119.604 26.5639H120.274V27.4544H121.285V26.5639H121.959V28.8454H121.285V27.993H120.274V28.8454H119.604V26.5639Z" fill="white"/>
<path d="M123.827 27.2933C124.13 27.2961 124.359 27.3625 124.514 27.4926C124.67 27.6226 124.748 27.8092 124.748 28.0524C124.748 28.3068 124.66 28.5033 124.484 28.6418C124.308 28.7804 124.059 28.8496 123.737 28.8496L122.604 28.8454V26.5639H123.274V27.2933H123.827ZM124.998 26.5639H125.668V28.8454H124.998V26.5639ZM123.676 28.3789C123.806 28.3817 123.905 28.3549 123.974 28.2983C124.043 28.2418 124.078 28.157 124.078 28.0439C124.078 27.9336 124.043 27.8531 123.974 27.8022C123.908 27.7513 123.809 27.7244 123.676 27.7216L123.274 27.7173V28.3789H123.676Z" fill="white"/>
<path d="M128.578 27.7131C128.578 27.7216 128.574 27.781 128.565 27.8912H126.806C126.838 28.0326 126.913 28.1443 127.031 28.2262C127.149 28.3082 127.296 28.3492 127.472 28.3492C127.593 28.3492 127.699 28.3323 127.791 28.2983C127.886 28.2616 127.974 28.205 128.055 28.1287L128.414 28.5104C128.195 28.7563 127.875 28.8793 127.454 28.8793C127.192 28.8793 126.96 28.8298 126.759 28.7309C126.557 28.6291 126.401 28.4892 126.292 28.3111C126.183 28.1329 126.128 27.9308 126.128 27.7046C126.128 27.4813 126.181 27.2806 126.288 27.1024C126.397 26.9215 126.545 26.7816 126.733 26.6826C126.923 26.5808 127.135 26.5299 127.368 26.5299C127.595 26.5299 127.801 26.578 127.986 26.6741C128.17 26.7702 128.314 26.9088 128.418 27.0897C128.525 27.2678 128.578 27.4756 128.578 27.7131ZM127.372 27.0303C127.22 27.0303 127.091 27.0728 126.988 27.1576C126.884 27.2424 126.821 27.3583 126.798 27.5053H127.943C127.92 27.3611 127.856 27.2466 127.752 27.1618C127.649 27.0742 127.522 27.0303 127.372 27.0303Z" fill="white"/>
<path d="M131.688 26.5299C131.904 26.5299 132.1 26.5794 132.276 26.6784C132.454 26.7745 132.594 26.9116 132.695 27.0897C132.796 27.265 132.846 27.47 132.846 27.7046C132.846 27.9393 132.796 28.1457 132.695 28.3238C132.594 28.4991 132.454 28.6362 132.276 28.7351C132.1 28.8313 131.904 28.8793 131.688 28.8793C131.391 28.8793 131.158 28.7874 130.988 28.6037V29.6681H130.314V26.5639H130.958V26.8268C131.125 26.6289 131.368 26.5299 131.688 26.5299ZM131.571 28.3365C131.744 28.3365 131.885 28.28 131.995 28.1669C132.107 28.051 132.163 27.8969 132.163 27.7046C132.163 27.5124 132.107 27.3597 131.995 27.2466C131.885 27.1307 131.744 27.0728 131.571 27.0728C131.399 27.0728 131.256 27.1307 131.144 27.2466C131.034 27.3597 130.979 27.5124 130.979 27.7046C130.979 27.8969 131.034 28.051 131.144 28.1669C131.256 28.28 131.399 28.3365 131.571 28.3365Z" fill="white"/>
<path d="M135.578 27.7131C135.578 27.7216 135.574 27.781 135.566 27.8912H133.807C133.839 28.0326 133.913 28.1443 134.032 28.2262C134.15 28.3082 134.297 28.3492 134.472 28.3492C134.593 28.3492 134.7 28.3323 134.792 28.2983C134.887 28.2616 134.975 28.205 135.056 28.1287L135.414 28.5104C135.195 28.7563 134.876 28.8793 134.455 28.8793C134.193 28.8793 133.961 28.8298 133.759 28.7309C133.558 28.6291 133.402 28.4892 133.293 28.3111C133.183 28.1329 133.128 27.9308 133.128 27.7046C133.128 27.4813 133.182 27.2806 133.288 27.1024C133.398 26.9215 133.546 26.7816 133.733 26.6826C133.923 26.5808 134.135 26.5299 134.369 26.5299C134.596 26.5299 134.802 26.578 134.986 26.6741C135.171 26.7702 135.315 26.9088 135.419 27.0897C135.525 27.2678 135.578 27.4756 135.578 27.7131ZM134.373 27.0303C134.22 27.0303 134.092 27.0728 133.988 27.1576C133.885 27.2424 133.821 27.3583 133.798 27.5053H134.943C134.92 27.3611 134.857 27.2466 134.753 27.1618C134.649 27.0742 134.523 27.0303 134.373 27.0303Z" fill="white"/>
<path d="M139.643 26.5639V28.8454H136.095V26.5639H136.765V28.3026H137.538V26.5639H138.208V28.3026H138.973V26.5639H139.643Z" fill="white"/>
<path d="M142.55 27.7131C142.55 27.7216 142.545 27.781 142.537 27.8912H140.778C140.81 28.0326 140.885 28.1443 141.003 28.2262C141.121 28.3082 141.268 28.3492 141.443 28.3492C141.564 28.3492 141.671 28.3323 141.763 28.2983C141.858 28.2616 141.946 28.205 142.027 28.1287L142.385 28.5104C142.166 28.7563 141.847 28.8793 141.426 28.8793C141.164 28.8793 140.932 28.8298 140.73 28.7309C140.529 28.6291 140.373 28.4892 140.264 28.3111C140.154 28.1329 140.1 27.9308 140.1 27.7046C140.1 27.4813 140.153 27.2806 140.259 27.1024C140.369 26.9215 140.517 26.7816 140.704 26.6826C140.895 26.5808 141.106 26.5299 141.34 26.5299C141.567 26.5299 141.773 26.578 141.958 26.6741C142.142 26.7702 142.286 26.9088 142.39 27.0897C142.496 27.2678 142.55 27.4756 142.55 27.7131ZM141.344 27.0303C141.191 27.0303 141.063 27.0728 140.959 27.1576C140.856 27.2424 140.792 27.3583 140.769 27.5053H141.914C141.891 27.3611 141.828 27.2466 141.724 27.1618C141.621 27.0742 141.494 27.0303 141.344 27.0303Z" fill="white"/>
<path d="M143.066 26.5639H143.736V27.4544H144.747V26.5639H145.421V28.8454H144.747V27.993H143.736V28.8454H143.066V26.5639Z" fill="white"/>
<path d="M146.067 26.5639H146.736V27.9209L147.868 26.5639H148.486V28.8454H147.817V27.4883L146.689 28.8454H146.067V26.5639Z" fill="white"/>
<path d="M151.2 26.5639V28.8454H150.599V28.1923H150.102L149.662 28.8454H148.944L149.476 28.099C149.314 28.0368 149.191 27.9478 149.104 27.8319C149.021 27.7131 148.979 27.5703 148.979 27.4035C148.979 27.135 149.077 26.9286 149.273 26.7844C149.471 26.6374 149.744 26.5639 150.089 26.5639H151.2ZM150.102 27.1024C149.958 27.1024 149.849 27.1279 149.774 27.1788C149.702 27.2297 149.666 27.3117 149.666 27.4247C149.666 27.5378 149.7 27.6212 149.77 27.6749C149.842 27.7258 149.95 27.7513 150.094 27.7513H150.599V27.1024H150.102Z" fill="white"/>
<path d="M155.677 28.3026V29.3373H155.05V28.8454H153.417V29.3373H152.791V28.3026H152.886C153.03 28.2997 153.129 28.2163 153.184 28.0524C153.238 27.8884 153.273 27.6552 153.287 27.3526L153.318 26.5639H155.344V28.3026H155.677ZM153.897 27.3993C153.888 27.6311 153.869 27.8205 153.841 27.9676C153.815 28.1146 153.764 28.2262 153.689 28.3026H154.67V27.1067H153.91L153.897 27.3993Z" fill="white"/>
<path d="M158.331 26.5639V28.8454H157.657V27.1067H156.922L156.901 27.5096C156.889 27.8092 156.86 28.058 156.814 28.2559C156.768 28.4538 156.693 28.6093 156.59 28.7224C156.486 28.8355 156.342 28.892 156.157 28.892C156.059 28.892 155.943 28.8751 155.807 28.8411L155.842 28.2983C155.888 28.304 155.921 28.3068 155.941 28.3068C156.042 28.3068 156.117 28.2715 156.166 28.2008C156.218 28.1273 156.252 28.0354 156.27 27.9251C156.287 27.8121 156.3 27.6636 156.309 27.4799L156.343 26.5639H158.331Z" fill="white"/>
<path d="M161.045 26.5639V28.8454H160.444V28.1923H159.947L159.506 28.8454H158.789L159.32 28.099C159.159 28.0368 159.035 27.9478 158.949 27.8319C158.865 27.7131 158.824 27.5703 158.824 27.4035C158.824 27.135 158.922 26.9286 159.117 26.7844C159.316 26.6374 159.588 26.5639 159.934 26.5639H161.045ZM159.947 27.1024C159.803 27.1024 159.694 27.1279 159.619 27.1788C159.547 27.2297 159.511 27.3117 159.511 27.4247C159.511 27.5378 159.545 27.6212 159.614 27.6749C159.686 27.7258 159.794 27.7513 159.938 27.7513H160.444V27.1024H159.947Z" fill="white"/>
<path d="M163.819 26.5299C164.179 26.5299 164.456 26.6148 164.649 26.7844C164.842 26.9512 164.938 27.2042 164.938 27.5435V28.8454H164.308V28.5613C164.181 28.7733 163.945 28.8793 163.599 28.8793C163.42 28.8793 163.265 28.8496 163.132 28.7903C163.003 28.7309 162.903 28.6489 162.834 28.5443C162.765 28.4397 162.73 28.3209 162.73 28.1881C162.73 27.976 162.811 27.8092 162.972 27.6877C163.137 27.5661 163.389 27.5053 163.729 27.5053H164.264C164.264 27.3611 164.22 27.2509 164.13 27.1745C164.041 27.0954 163.907 27.0558 163.729 27.0558C163.605 27.0558 163.482 27.0756 163.361 27.1152C163.243 27.1519 163.142 27.2028 163.059 27.2678L162.817 26.8056C162.944 26.7179 163.095 26.6501 163.271 26.602C163.449 26.554 163.632 26.5299 163.819 26.5299ZM163.767 28.434C163.883 28.434 163.985 28.4086 164.074 28.3577C164.164 28.304 164.227 28.2262 164.264 28.1245V27.8912H163.802C163.525 27.8912 163.387 27.9803 163.387 28.1584C163.387 28.2432 163.42 28.3111 163.487 28.3619C163.556 28.41 163.649 28.434 163.767 28.434Z" fill="white"/>
<path d="M167.3 27.6537C167.574 27.7442 167.71 27.9251 167.71 28.1966C167.71 28.4029 167.631 28.5627 167.473 28.6758C167.314 28.7888 167.078 28.8454 166.764 28.8454H165.524V26.5639H166.712C167.003 26.5639 167.231 26.6162 167.395 26.7208C167.559 26.8225 167.641 26.9667 167.641 27.1533C167.641 27.2664 167.611 27.3668 167.551 27.4544C167.493 27.5392 167.409 27.6057 167.3 27.6537ZM166.142 27.5011H166.652C166.888 27.5011 167.006 27.4191 167.006 27.2551C167.006 27.094 166.888 27.0134 166.652 27.0134H166.142V27.5011ZM166.708 28.3959C166.956 28.3959 167.08 28.3125 167.08 28.1457C167.08 28.058 167.051 27.9944 166.993 27.9548C166.936 27.9124 166.845 27.8912 166.721 27.8912H166.142V28.3959H166.708Z" fill="white"/>
<path d="M170.165 27.1067H169.379V28.8454H168.709V27.1067H167.923V26.5639H170.165V27.1067Z" fill="white"/>
<path d="M171.516 28.8793C171.271 28.8793 171.051 28.8298 170.855 28.7309C170.662 28.6291 170.511 28.4892 170.402 28.3111C170.292 28.1329 170.237 27.9308 170.237 27.7046C170.237 27.4785 170.292 27.2763 170.402 27.0982C170.511 26.9201 170.662 26.7816 170.855 26.6826C171.051 26.5808 171.271 26.5299 171.516 26.5299C171.761 26.5299 171.98 26.5808 172.173 26.6826C172.366 26.7816 172.517 26.9201 172.627 27.0982C172.736 27.2763 172.791 27.4785 172.791 27.7046C172.791 27.9308 172.736 28.1329 172.627 28.3111C172.517 28.4892 172.366 28.6291 172.173 28.7309C171.98 28.8298 171.761 28.8793 171.516 28.8793ZM171.516 28.3365C171.689 28.3365 171.83 28.28 171.94 28.1669C172.052 28.051 172.108 27.8969 172.108 27.7046C172.108 27.5124 172.052 27.3597 171.94 27.2466C171.83 27.1307 171.689 27.0728 171.516 27.0728C171.343 27.0728 171.201 27.1307 171.089 27.2466C170.976 27.3597 170.92 27.5124 170.92 27.7046C170.92 27.8969 170.976 28.051 171.089 28.1669C171.201 28.28 171.343 28.3365 171.516 28.3365Z" fill="white"/>
<path d="M174.599 26.7208C174.82 26.7208 175.015 26.766 175.182 26.8565C175.349 26.9441 175.477 27.0685 175.566 27.2297C175.659 27.3908 175.705 27.5774 175.705 27.7894C175.705 28.0071 175.65 28.2008 175.541 28.3704C175.434 28.5372 175.284 28.6673 175.091 28.7606C174.898 28.851 174.679 28.8963 174.434 28.8963C174.028 28.8963 173.708 28.7691 173.475 28.5146C173.245 28.2573 173.129 27.8813 173.129 27.3866C173.129 26.9286 173.23 26.5639 173.432 26.2925C173.636 26.0182 173.949 25.8387 174.37 25.7539L175.476 25.5376L175.566 26.1059L174.59 26.2967C174.325 26.3476 174.128 26.4324 173.998 26.5511C173.871 26.6699 173.796 26.8381 173.773 27.0558C173.874 26.9484 173.995 26.8664 174.136 26.8098C174.277 26.7505 174.431 26.7208 174.599 26.7208ZM174.439 28.3831C174.611 28.3831 174.75 28.328 174.853 28.2178C174.96 28.1075 175.013 27.9676 175.013 27.7979C175.013 27.6255 174.96 27.4883 174.853 27.3866C174.75 27.2848 174.611 27.2339 174.439 27.2339C174.263 27.2339 174.122 27.2848 174.015 27.3866C173.909 27.4883 173.855 27.6255 173.855 27.7979C173.855 27.9704 173.91 28.1117 174.02 28.222C174.129 28.3294 174.269 28.3831 174.439 28.3831Z" fill="white"/>
<path d="M176.162 26.5639H176.832V27.9209L177.964 26.5639H178.582V28.8454H177.912V27.4883L176.784 28.8454H176.162V26.5639Z" fill="white"/>
<path d="M180.717 27.658C180.855 27.7004 180.962 27.7654 181.037 27.8531C181.114 27.9407 181.153 28.0453 181.153 28.1669C181.153 28.3111 181.103 28.4383 181.002 28.5485C180.901 28.656 180.763 28.7394 180.587 28.7987C180.412 28.8581 180.213 28.8878 179.991 28.8878C179.809 28.8878 179.631 28.8694 179.455 28.8327C179.279 28.7959 179.117 28.7408 178.967 28.6673L179.148 28.205C179.393 28.3209 179.664 28.3789 179.961 28.3789C180.119 28.3789 180.243 28.3563 180.332 28.3111C180.424 28.263 180.471 28.1966 180.471 28.1117C180.471 28.0382 180.439 27.9831 180.376 27.9463C180.312 27.9068 180.22 27.887 180.099 27.887H179.624V27.4756H180.038C180.157 27.4756 180.247 27.4573 180.311 27.4205C180.374 27.3837 180.406 27.33 180.406 27.2593C180.406 27.1858 180.365 27.1293 180.285 27.0897C180.207 27.0501 180.095 27.0303 179.948 27.0303C179.723 27.0303 179.478 27.0826 179.213 27.1873L179.049 26.7293C179.372 26.5907 179.686 26.5215 179.991 26.5215C180.201 26.5215 180.388 26.5469 180.553 26.5978C180.72 26.6487 180.851 26.7236 180.946 26.8226C181.041 26.9187 181.088 27.0318 181.088 27.1618C181.088 27.2692 181.055 27.3668 180.989 27.4544C180.923 27.5392 180.832 27.6071 180.717 27.658Z" fill="white"/>
<path d="M181.644 26.5639H182.313V27.4544H183.325V26.5639H183.999V28.8454H183.325V27.993H182.313V28.8454H181.644V26.5639Z" fill="white"/>
<path d="M186.904 27.7131C186.904 27.7216 186.9 27.781 186.891 27.8912H185.132C185.164 28.0326 185.239 28.1443 185.357 28.2262C185.475 28.3082 185.622 28.3492 185.798 28.3492C185.919 28.3492 186.025 28.3323 186.117 28.2983C186.212 28.2616 186.3 28.205 186.381 28.1287L186.74 28.5104C186.521 28.7563 186.201 28.8793 185.78 28.8793C185.518 28.8793 185.286 28.8298 185.085 28.7309C184.883 28.6291 184.727 28.4892 184.618 28.3111C184.509 28.1329 184.454 27.9308 184.454 27.7046C184.454 27.4813 184.507 27.2806 184.614 27.1024C184.723 26.9215 184.871 26.7816 185.059 26.6826C185.249 26.5808 185.461 26.5299 185.694 26.5299C185.922 26.5299 186.127 26.578 186.312 26.6741C186.496 26.7702 186.64 26.9088 186.744 27.0897C186.851 27.2678 186.904 27.4756 186.904 27.7131ZM185.698 27.0303C185.546 27.0303 185.417 27.0728 185.314 27.1576C185.21 27.2424 185.147 27.3583 185.124 27.5053H186.269C186.246 27.3611 186.182 27.2466 186.079 27.1618C185.975 27.0742 185.848 27.0303 185.698 27.0303Z" fill="white"/>
<path d="M188.527 28.8793C188.279 28.8793 188.056 28.8298 187.857 28.7309C187.661 28.6291 187.507 28.4892 187.395 28.3111C187.285 28.1329 187.23 27.9308 187.23 27.7046C187.23 27.4785 187.285 27.2763 187.395 27.0982C187.507 26.9201 187.661 26.7816 187.857 26.6826C188.056 26.5808 188.279 26.5299 188.527 26.5299C188.772 26.5299 188.985 26.5808 189.166 26.6826C189.351 26.7816 189.485 26.9243 189.568 27.1109L189.045 27.3866C188.924 27.1774 188.75 27.0728 188.522 27.0728C188.347 27.0728 188.201 27.1293 188.086 27.2424C187.971 27.3555 187.913 27.5096 187.913 27.7046C187.913 27.8997 187.971 28.0538 188.086 28.1669C188.201 28.28 188.347 28.3365 188.522 28.3365C188.753 28.3365 188.927 28.2319 189.045 28.0227L189.568 28.3026C189.485 28.4835 189.351 28.6249 189.166 28.7266C188.985 28.8284 188.772 28.8793 188.527 28.8793Z" fill="white"/>
<path d="M190.881 26.5299C191.241 26.5299 191.517 26.6148 191.71 26.7844C191.904 26.9512 192 27.2042 192 27.5435V28.8454H191.369V28.5613C191.242 28.7733 191.006 28.8793 190.66 28.8793C190.482 28.8793 190.326 28.8496 190.194 28.7903C190.064 28.7309 189.965 28.6489 189.896 28.5443C189.827 28.4397 189.792 28.3209 189.792 28.1881C189.792 27.976 189.873 27.8092 190.034 27.6877C190.198 27.5661 190.45 27.5053 190.79 27.5053H191.326C191.326 27.3611 191.281 27.2509 191.192 27.1745C191.103 27.0954 190.969 27.0558 190.79 27.0558C190.666 27.0558 190.544 27.0756 190.423 27.1152C190.305 27.1519 190.204 27.2028 190.12 27.2678L189.878 26.8056C190.005 26.7179 190.156 26.6501 190.332 26.602C190.511 26.554 190.694 26.5299 190.881 26.5299ZM190.829 28.434C190.944 28.434 191.046 28.4086 191.136 28.3577C191.225 28.304 191.288 28.2262 191.326 28.1245V27.8912H190.864C190.587 27.8912 190.449 27.9803 190.449 28.1584C190.449 28.2432 190.482 28.3111 190.548 28.3619C190.617 28.41 190.711 28.434 190.829 28.434Z" fill="white"/>
</svg>
