<svg width="509" height="509" viewBox="0 0 509 509" fill="none" xmlns="http://www.w3.org/2000/svg">
<path d="M397.923 174.57C396.532 171.584 393.536 169.667 390.237 169.667H289.709L388.922 13.0222C390.576 10.4096 390.677 7.10115 389.185 4.3951C387.692 1.6801 384.841 0 381.753 0H246.02C242.805 0 239.869 1.8153 238.428 4.69135L111.178 259.191C109.862 261.813 110.007 264.935 111.551 267.437C113.103 269.939 115.826 271.466 118.77 271.466H206.004L110.948 497.224C109.328 501.085 110.77 505.563 114.341 507.752C115.715 508.592 117.242 508.999 118.761 508.999C121.196 508.999 123.597 507.955 125.26 505.988L396.727 183.621C398.855 181.094 399.313 177.564 397.923 174.57Z" fill="#33403C"/>
</svg>
