<svg width="289" height="509" viewBox="0 0 289 509" fill="none" xmlns="http://www.w3.org/2000/svg">
<path d="M287.923 174.57C286.532 171.584 283.537 169.667 280.237 169.667H179.709L278.922 13.0222C280.576 10.4096 280.677 7.10115 279.185 4.3951C277.692 1.6801 274.841 0 271.753 0H136.02C132.805 0 129.869 1.8153 128.428 4.69135L1.17774 259.191C-0.137508 261.813 0.00664198 264.935 1.55054 267.437C3.10339 269.939 5.82634 271.466 8.76999 271.466H96.0038L0.94809 497.224C-0.672359 501.085 0.770141 505.563 4.34109 507.752C5.715 508.592 7.242 508.999 8.76104 508.999C11.1957 508.999 13.5965 507.955 15.2597 505.988L286.727 183.621C288.855 181.094 289.313 177.564 287.923 174.57Z" fill="#33403C"/>
</svg>
